<svg width="815" height="300" viewBox="0 0 815 300" fill="none" xmlns="http://www.w3.org/2000/svg">
<path d="M63.0453 237.886C52.2417 237.886 42.6221 235.444 34.1865 230.56C25.8989 225.528 19.3872 218.721 14.6514 210.137C9.91557 201.405 7.54767 191.416 7.54767 180.168C7.54767 168.773 9.84157 158.709 14.4294 149.978C19.0172 141.246 25.4549 134.438 33.7425 129.555C42.0302 124.523 51.5018 122.007 62.1573 122.007C73.2568 122.007 82.8024 124.375 90.794 129.111C98.7857 133.698 104.927 140.136 109.219 148.424C113.659 156.711 115.879 166.627 115.879 178.17V186.384L21.7551 186.606L22.199 169.291H89.0181C89.0181 161.743 86.5762 155.675 81.6925 151.088C76.9567 146.5 70.5189 144.206 62.3793 144.206C56.0156 144.206 50.6138 145.538 46.174 148.202C41.8822 150.866 38.6263 154.861 36.4064 160.189C34.1865 165.517 33.0766 172.029 33.0766 179.724C33.0766 191.564 35.5925 200.517 40.6242 206.585C45.804 212.653 53.4257 215.687 63.4892 215.687C70.8889 215.687 76.9567 214.281 81.6925 211.469C86.5762 208.657 89.7581 204.661 91.238 199.482H116.323C113.955 211.469 108.035 220.867 98.5637 227.674C89.2401 234.482 77.4006 237.886 63.0453 237.886Z" fill="#010816"/>
<path d="M287.53 237.886C275.986 237.886 266.81 234.778 260.003 228.562C253.343 222.199 250.013 213.911 250.013 203.699C250.013 193.636 253.491 185.644 260.447 179.724C267.55 173.657 277.614 170.105 290.637 169.069L323.492 166.405V163.963C323.492 158.931 322.53 154.935 320.606 151.976C318.83 148.868 316.24 146.648 312.836 145.316C309.433 143.836 305.437 143.096 300.849 143.096C292.857 143.096 286.716 144.724 282.424 147.98C278.132 151.088 275.986 155.527 275.986 161.299H252.899C252.899 153.308 254.897 146.426 258.893 140.654C263.037 134.734 268.808 130.147 276.208 126.891C283.756 123.635 292.413 122.007 302.181 122.007C312.096 122.007 320.606 123.783 327.71 127.335C334.813 130.739 340.289 135.918 344.137 142.874C347.985 149.682 349.909 158.191 349.909 168.403V235H326.156L324.158 218.795C321.79 224.418 317.202 229.006 310.395 232.558C303.735 236.11 296.113 237.886 287.53 237.886ZM296.187 217.463C304.623 217.463 311.283 215.095 316.166 210.359C321.198 205.623 323.714 199.038 323.714 190.602V184.83L300.849 186.606C292.413 187.346 286.42 189.122 282.868 191.934C279.316 194.598 277.54 198.15 277.54 202.589C277.54 207.473 279.168 211.173 282.424 213.689C285.68 216.205 290.267 217.463 296.187 217.463Z" fill="#010816"/>
<path d="M388.058 235H360.975V125.337H385.838L389.168 144.872L386.06 142.208C388.28 136.88 392.35 132.218 398.27 128.223C404.189 124.079 411.589 122.007 420.469 122.007C430.088 122.007 437.932 124.523 444 129.555C450.215 134.586 454.507 141.246 456.875 149.534H452.435C454.063 141.246 458.207 134.586 464.867 129.555C471.675 124.523 479.888 122.007 489.508 122.007C502.827 122.007 513.039 125.781 520.142 133.328C527.246 140.728 530.798 150.718 530.798 163.297V235H503.937V170.401C503.937 162.557 501.939 156.637 497.943 152.642C494.096 148.498 488.916 146.426 482.404 146.426C478.26 146.426 474.412 147.388 470.861 149.312C467.457 151.236 464.719 154.122 462.647 157.969C460.575 161.817 459.539 166.775 459.539 172.843V235H432.456V170.179C432.456 162.483 430.532 156.637 426.685 152.642C422.837 148.646 417.731 146.648 411.367 146.648C407.075 146.648 403.154 147.61 399.602 149.534C396.05 151.31 393.238 154.196 391.166 158.191C389.094 162.039 388.058 166.923 388.058 172.843V235Z" fill="#010816"/>
<path d="M541.846 235V125.337H568.928V235H541.846ZM555.165 103.36C550.577 103.36 546.655 101.806 543.399 98.6979C540.292 95.4421 538.738 91.5202 538.738 86.9324C538.738 82.3446 540.292 78.4968 543.399 75.3889C546.655 72.2811 550.577 70.7271 555.165 70.7271C559.753 70.7271 563.601 72.2811 566.708 75.3889C569.964 78.4968 571.592 82.3446 571.592 86.9324C571.592 91.5202 569.964 95.4421 566.708 98.6979C563.601 101.806 559.753 103.36 555.165 103.36Z" fill="#010816"/>
<path d="M570.493 125.337H639.31V147.98H570.493V125.337ZM639.532 70.9491V94.0361C638.052 94.0361 636.498 94.0361 634.87 94.0361C633.39 94.0361 631.836 94.0361 630.208 94.0361C623.4 94.0361 618.813 95.664 616.445 98.9199C614.225 102.176 613.115 106.542 613.115 112.017V235H586.254V112.017C586.254 101.954 587.882 93.8881 591.138 87.8204C594.394 81.6047 598.981 77.0909 604.901 74.279C610.821 71.3191 617.703 69.8392 625.546 69.8392C627.766 69.8392 630.06 69.9132 632.428 70.0612C634.944 70.2092 637.312 70.5051 639.532 70.9491Z" fill="#010816"/>
<path d="M657.261 125.337L693.002 226.564L678.35 254.313L628.625 125.337H657.261ZM631.51 285.836V263.415H647.716C651.268 263.415 654.375 262.971 657.039 262.083C659.703 261.343 662.071 259.863 664.143 257.643C666.363 255.423 668.213 252.167 669.693 247.875L715.201 125.337H743.172L689.45 259.419C685.454 269.482 680.422 276.808 674.355 281.396C668.287 285.984 660.739 288.278 651.712 288.278C647.864 288.278 644.238 288.056 640.834 287.612C637.578 287.316 634.47 286.724 631.51 285.836Z" fill="#010816"/>
<path d="M813.561 164.498C809.421 164.501 806.066 167.856 806.063 171.996C806.06 167.856 802.705 164.501 798.565 164.498C802.705 164.495 806.06 161.14 806.063 157C806.066 161.14 809.421 164.495 813.561 164.498Z" fill="url(#paint0_linear_131_83)"/>
<path d="M813.565 159.292C812.3 159.293 811.274 160.318 811.273 161.583C811.272 160.318 810.247 159.293 808.982 159.292C810.247 159.291 811.272 158.265 811.273 157C811.274 158.265 812.3 159.291 813.565 159.292Z" fill="#3B82F5"/>
<path d="M728.41 236.394C725.854 236.394 723.647 235.503 721.788 233.722C719.929 231.941 719 229.772 719 227.216C719 224.66 719.929 222.492 721.788 220.71C723.647 218.852 725.854 217.922 728.41 217.922C730.966 217.922 733.173 218.852 735.032 220.71C736.891 222.492 737.82 224.66 737.82 227.216C737.82 229.772 736.891 231.941 735.032 233.722C733.173 235.503 730.966 236.394 728.41 236.394Z" fill="url(#paint1_linear_131_83)"/>
<path d="M760.503 236.51C754.462 236.51 749.661 234.884 746.098 231.631C742.613 228.301 740.87 223.963 740.87 218.619C740.87 213.353 742.69 209.17 746.33 206.072C750.048 202.897 755.314 201.038 762.13 200.496L779.324 199.102V197.824C779.324 195.191 778.82 193.1 777.814 191.551C776.884 189.924 775.529 188.762 773.747 188.065C771.966 187.291 769.875 186.904 767.474 186.904C763.292 186.904 760.078 187.755 757.831 189.459C755.585 191.086 754.462 193.409 754.462 196.43H742.38C742.38 192.248 743.426 188.646 745.517 185.626C747.686 182.528 750.706 180.127 754.579 178.423C758.529 176.719 763.059 175.867 768.171 175.867C773.36 175.867 777.814 176.796 781.531 178.655C785.249 180.436 788.114 183.147 790.128 186.787C792.142 190.35 793.149 194.803 793.149 200.147V235H780.718L779.672 226.519C778.433 229.462 776.032 231.863 772.47 233.722C768.984 235.581 764.996 236.51 760.503 236.51ZM765.034 225.822C769.449 225.822 772.934 224.583 775.49 222.105C778.123 219.626 779.44 216.18 779.44 211.765V208.744L767.474 209.674C763.059 210.061 759.923 210.99 758.064 212.462C756.205 213.856 755.276 215.715 755.276 218.038C755.276 220.594 756.128 222.531 757.831 223.847C759.535 225.164 761.936 225.822 765.034 225.822Z" fill="url(#paint2_linear_131_83)"/>
<path fill-rule="evenodd" clip-rule="evenodd" d="M798.94 177.61V235H813.114V177.61H798.94Z" fill="url(#paint3_linear_131_83)"/>
<path d="M128 119C160.106 151.06 212.111 151.06 244.216 119C212.156 151.106 212.156 203.111 244.216 235.216C212.111 203.156 160.106 203.156 128 235.216C160.06 203.111 160.06 151.106 128 119Z" fill="url(#paint4_linear_131_83)"/>
<defs>
<linearGradient id="paint0_linear_131_83" x1="810.719" y1="169.475" x2="810.674" y2="157.324" gradientUnits="userSpaceOnUse">
<stop stop-color="#2563EB"/>
<stop offset="1" stop-color="#97B8FF"/>
</linearGradient>
<linearGradient id="paint1_linear_131_83" x1="766.754" y1="169.921" x2="766.754" y2="203.869" gradientUnits="userSpaceOnUse">
<stop stop-color="#2563EB"/>
<stop offset="1" stop-color="#97B8FF"/>
</linearGradient>
<linearGradient id="paint2_linear_131_83" x1="766.754" y1="169.921" x2="766.754" y2="203.869" gradientUnits="userSpaceOnUse">
<stop stop-color="#2563EB"/>
<stop offset="1" stop-color="#97B8FF"/>
</linearGradient>
<linearGradient id="paint3_linear_131_83" x1="766.754" y1="169.921" x2="766.754" y2="203.869" gradientUnits="userSpaceOnUse">
<stop stop-color="#2563EB"/>
<stop offset="1" stop-color="#97B8FF"/>
</linearGradient>
<linearGradient id="paint4_linear_131_83" x1="155.753" y1="146.753" x2="200.852" y2="191.852" gradientUnits="userSpaceOnUse">
<stop stop-color="#2563EB"/>
<stop offset="1" stop-color="#97B8FF"/>
</linearGradient>
</defs>
</svg>
