<svg width="815" height="227" viewBox="0 0 815 227" fill="none" xmlns="http://www.w3.org/2000/svg">
<path d="M63.0453 174.886C52.2417 174.886 42.6221 172.444 34.1865 167.56C25.8989 162.528 19.3872 155.721 14.6514 147.137C9.91557 138.405 7.54767 128.416 7.54767 117.168C7.54767 105.773 9.84157 95.7093 14.4294 86.9777C19.0172 78.2461 25.4549 71.4384 33.7425 66.5546C42.0302 61.5228 51.5018 59.0069 62.1573 59.0069C73.2568 59.0069 82.8024 61.3748 90.794 66.1106C98.7857 70.6984 104.927 77.1361 109.219 85.4238C113.659 93.7114 115.879 103.627 115.879 115.17V123.384L21.7551 123.606L22.199 106.291H89.0181C89.0181 98.7432 86.5762 92.6755 81.6925 88.0877C76.9567 83.4999 70.5189 81.206 62.3793 81.206C56.0156 81.206 50.6138 82.5379 46.174 85.2018C41.8822 87.8657 38.6263 91.8615 36.4064 97.1893C34.1865 102.517 33.0766 109.029 33.0766 116.724C33.0766 128.564 35.5925 137.517 40.6242 143.585C45.804 149.653 53.4257 152.687 63.4892 152.687C70.8889 152.687 76.9567 151.281 81.6925 148.469C86.5762 145.657 89.7581 141.661 91.238 136.482H116.323C113.955 148.469 108.035 157.867 98.5637 164.674C89.2401 171.482 77.4006 174.886 63.0453 174.886Z" fill="white"/>
<path d="M287.53 174.886C275.986 174.886 266.81 171.778 260.003 165.562C253.343 159.199 250.013 150.911 250.013 140.699C250.013 130.636 253.491 122.644 260.447 116.724C267.55 110.657 277.614 107.105 290.637 106.069L323.492 103.405V100.963C323.492 95.9313 322.53 91.9355 320.606 88.9756C318.83 85.8678 316.24 83.6478 312.836 82.3159C309.433 80.836 305.437 80.096 300.849 80.096C292.857 80.096 286.716 81.7239 282.424 84.9798C278.132 88.0877 275.986 92.5275 275.986 98.2992H252.899C252.899 90.3076 254.897 83.4259 258.893 77.6541C263.037 71.7344 268.808 67.1466 276.208 63.8907C283.756 60.6348 292.413 59.0069 302.181 59.0069C312.096 59.0069 320.606 60.7828 327.71 64.3347C334.813 67.7385 340.289 72.9183 344.137 79.874C347.985 86.6817 349.909 95.1913 349.909 105.403V172H326.156L324.158 155.795C321.79 161.418 317.202 166.006 310.395 169.558C303.735 173.11 296.113 174.886 287.53 174.886ZM296.187 154.463C304.623 154.463 311.283 152.095 316.166 147.359C321.198 142.623 323.714 136.038 323.714 127.602V121.83L300.849 123.606C292.413 124.346 286.42 126.122 282.868 128.934C279.316 131.598 277.54 135.15 277.54 139.589C277.54 144.473 279.168 148.173 282.424 150.689C285.68 153.205 290.267 154.463 296.187 154.463Z" fill="white"/>
<path d="M388.058 172H360.975V62.3368H385.838L389.168 81.8719L386.06 79.208C388.28 73.8803 392.35 69.2185 398.27 65.2226C404.189 61.0788 411.589 59.0069 420.469 59.0069C430.088 59.0069 437.932 61.5228 444 66.5546C450.215 71.5864 454.507 78.2461 456.875 86.5337H452.435C454.063 78.2461 458.207 71.5864 464.867 66.5546C471.675 61.5228 479.888 59.0069 489.508 59.0069C502.827 59.0069 513.039 62.7808 520.142 70.3284C527.246 77.7281 530.798 87.7177 530.798 100.297V172H503.937V107.401C503.937 99.5572 501.939 93.6374 497.943 89.6416C494.096 85.4978 488.916 83.4259 482.404 83.4259C478.26 83.4259 474.412 84.3878 470.861 86.3117C467.457 88.2356 464.719 91.1215 462.647 94.9694C460.575 98.8172 459.539 103.775 459.539 109.843V172H432.456V107.179C432.456 99.4832 430.532 93.6374 426.685 89.6416C422.837 85.6458 417.731 83.6478 411.367 83.6478C407.075 83.6478 403.154 84.6098 399.602 86.5337C396.05 88.3096 393.238 91.1955 391.166 95.1913C389.094 99.0392 388.058 103.923 388.058 109.843V172Z" fill="white"/>
<path d="M541.846 172V62.3368H568.928V172H541.846ZM555.165 40.3597C550.577 40.3597 546.655 38.8058 543.399 35.6979C540.292 32.4421 538.738 28.5202 538.738 23.9324C538.738 19.3446 540.292 15.4968 543.399 12.3889C546.655 9.28108 550.577 7.72715 555.165 7.72715C559.753 7.72715 563.601 9.28108 566.708 12.3889C569.964 15.4968 571.592 19.3446 571.592 23.9324C571.592 28.5202 569.964 32.4421 566.708 35.6979C563.601 38.8058 559.753 40.3597 555.165 40.3597Z" fill="white"/>
<path d="M570.493 62.3368H639.31V84.9798H570.493V62.3368ZM639.532 7.94914V31.0361C638.052 31.0361 636.498 31.0361 634.87 31.0361C633.39 31.0361 631.836 31.0361 630.208 31.0361C623.4 31.0361 618.813 32.6641 616.445 35.9199C614.225 39.1758 613.115 43.5416 613.115 49.0174V172H586.254V49.0174C586.254 38.9538 587.882 30.8881 591.138 24.8204C594.394 18.6047 598.981 14.0909 604.901 11.279C610.821 8.31912 617.703 6.83919 625.546 6.83919C627.766 6.83919 630.06 6.91318 632.428 7.06118C634.944 7.20917 637.312 7.50515 639.532 7.94914Z" fill="white"/>
<path d="M657.261 62.3368L693.002 163.564L678.35 191.313L628.625 62.3368H657.261ZM631.51 222.836V200.415H647.716C651.268 200.415 654.375 199.971 657.039 199.083C659.703 198.343 662.071 196.863 664.143 194.643C666.363 192.423 668.213 189.167 669.693 184.875L715.201 62.3368H743.172L689.45 196.419C685.454 206.483 680.422 213.808 674.355 218.396C668.287 222.984 660.739 225.278 651.712 225.278C647.864 225.278 644.238 225.056 640.834 224.612C637.578 224.316 634.47 223.724 631.51 222.836Z" fill="white"/>
<path d="M813.561 101.498C809.421 101.501 806.066 104.856 806.063 108.996C806.06 104.856 802.705 101.501 798.565 101.498C802.705 101.495 806.06 98.1397 806.063 94C806.066 98.1397 809.421 101.495 813.561 101.498Z" fill="white"/>
<path d="M813.561 101.498C809.421 101.501 806.066 104.856 806.063 108.996C806.06 104.856 802.705 101.501 798.565 101.498C802.705 101.495 806.06 98.1397 806.063 94C806.066 98.1397 809.421 101.495 813.561 101.498Z" fill="url(#paint0_linear_131_84)"/>
<path d="M813.565 96.2917C812.3 96.2925 811.274 97.318 811.273 98.5833C811.272 97.318 810.247 96.2925 808.982 96.2917C810.247 96.2908 811.272 95.2653 811.273 94C811.274 95.2653 812.3 96.2908 813.565 96.2917Z" fill="white"/>
<path d="M813.565 96.2917C812.3 96.2925 811.274 97.318 811.273 98.5833C811.272 97.318 810.247 96.2925 808.982 96.2917C810.247 96.2908 811.272 95.2653 811.273 94C811.274 95.2653 812.3 96.2908 813.565 96.2917Z" fill="url(#paint1_linear_131_84)"/>
<path d="M728.41 173.394C725.854 173.394 723.647 172.503 721.788 170.722C719.929 168.941 719 166.772 719 164.216C719 161.66 719.929 159.492 721.788 157.71C723.647 155.852 725.854 154.922 728.41 154.922C730.966 154.922 733.173 155.852 735.032 157.71C736.891 159.492 737.82 161.66 737.82 164.216C737.82 166.772 736.891 168.941 735.032 170.722C733.173 172.503 730.966 173.394 728.41 173.394Z" fill="url(#paint2_linear_131_84)"/>
<path d="M760.503 173.51C754.462 173.51 749.661 171.884 746.098 168.631C742.613 165.301 740.87 160.963 740.87 155.619C740.87 150.353 742.69 146.17 746.33 143.072C750.048 139.897 755.314 138.038 762.13 137.496L779.324 136.102V134.824C779.324 132.191 778.82 130.1 777.814 128.551C776.884 126.924 775.529 125.762 773.747 125.065C771.966 124.291 769.875 123.904 767.474 123.904C763.292 123.904 760.078 124.756 757.831 126.459C755.585 128.086 754.462 130.409 754.462 133.43H742.38C742.38 129.248 743.426 125.646 745.517 122.626C747.686 119.528 750.706 117.127 754.579 115.423C758.529 113.719 763.059 112.867 768.171 112.867C773.36 112.867 777.814 113.796 781.531 115.655C785.249 117.437 788.114 120.147 790.128 123.787C792.142 127.35 793.149 131.803 793.149 137.148V172H780.718L779.672 163.519C778.433 166.462 776.032 168.863 772.47 170.722C768.984 172.581 764.996 173.51 760.503 173.51ZM765.034 162.822C769.449 162.822 772.934 161.583 775.49 159.105C778.123 156.626 779.44 153.18 779.44 148.765V145.744L767.474 146.674C763.059 147.061 759.923 147.991 758.064 149.462C756.205 150.856 755.276 152.715 755.276 155.038C755.276 157.594 756.128 159.531 757.831 160.847C759.535 162.164 761.936 162.822 765.034 162.822Z" fill="url(#paint3_linear_131_84)"/>
<path fill-rule="evenodd" clip-rule="evenodd" d="M798.94 114.61V172H813.114V114.61H798.94Z" fill="url(#paint4_linear_131_84)"/>
<path d="M128 56C160.106 88.0601 212.111 88.0601 244.216 56C212.156 88.1055 212.156 140.111 244.216 172.216C212.111 140.156 160.106 140.156 128 172.216C160.06 140.111 160.06 88.1055 128 56Z" fill="url(#paint5_linear_131_84)"/>
<defs>
<linearGradient id="paint0_linear_131_84" x1="809.979" y1="97.5811" x2="804.16" y2="103.4" gradientUnits="userSpaceOnUse">
<stop stop-color="#2563EB"/>
<stop offset="1" stop-color="#97B8FF"/>
</linearGradient>
<linearGradient id="paint1_linear_131_84" x1="812.47" y1="95.0945" x2="810.692" y2="96.8731" gradientUnits="userSpaceOnUse">
<stop stop-color="#2563EB"/>
<stop offset="1" stop-color="#97B8FF"/>
</linearGradient>
<linearGradient id="paint2_linear_131_84" x1="766.754" y1="106.921" x2="766.754" y2="140.869" gradientUnits="userSpaceOnUse">
<stop stop-color="#2563EB"/>
<stop offset="1" stop-color="#97B8FF"/>
</linearGradient>
<linearGradient id="paint3_linear_131_84" x1="766.754" y1="106.921" x2="766.754" y2="140.869" gradientUnits="userSpaceOnUse">
<stop stop-color="#2563EB"/>
<stop offset="1" stop-color="#97B8FF"/>
</linearGradient>
<linearGradient id="paint4_linear_131_84" x1="766.754" y1="106.921" x2="766.754" y2="140.869" gradientUnits="userSpaceOnUse">
<stop stop-color="#2563EB"/>
<stop offset="1" stop-color="#97B8FF"/>
</linearGradient>
<linearGradient id="paint5_linear_131_84" x1="155.753" y1="83.7532" x2="200.852" y2="128.852" gradientUnits="userSpaceOnUse">
<stop stop-color="#2563EB"/>
<stop offset="1" stop-color="#97B8FF"/>
</linearGradient>
</defs>
</svg>
