<svg width="584" height="584" viewBox="0 0 584 584" fill="none" xmlns="http://www.w3.org/2000/svg">
<rect x="4.5" y="4.5" width="575" height="575" rx="287.5" fill="#010816" stroke="#1E293B" stroke-width="9"/>
<path d="M224.701 363.886C211.717 363.886 200.155 360.951 190.017 355.081C180.056 349.034 172.23 340.852 166.538 330.535C160.846 320.041 158 308.035 158 294.517C158 280.821 160.757 268.726 166.271 258.231C171.785 247.737 179.522 239.555 189.483 233.685C199.444 227.638 210.827 224.614 223.634 224.614C236.974 224.614 248.447 227.46 258.052 233.152C267.657 238.666 275.038 246.403 280.196 256.364C285.533 266.324 288.201 278.242 288.201 292.116V301.987L175.075 302.254L175.609 281.443H255.917C255.917 272.372 252.982 265.079 247.113 259.565C241.421 254.051 233.684 251.294 223.901 251.294C216.252 251.294 209.76 252.895 204.424 256.097C199.266 259.299 195.353 264.101 192.685 270.504C190.017 276.908 188.683 284.734 188.683 293.983C188.683 308.213 191.706 318.974 197.754 326.267C203.979 333.559 213.14 337.205 225.235 337.205C234.128 337.205 241.421 335.516 247.113 332.136C252.982 328.757 256.807 323.954 258.585 317.729H288.734C285.888 332.136 278.773 343.431 267.39 351.613C256.184 359.795 241.954 363.886 224.701 363.886Z" fill="#F8FAFC"/>
<path d="M287.144 221C325.731 259.532 388.235 259.532 426.822 221C388.289 259.587 388.289 322.091 426.822 360.677C388.235 322.145 325.731 322.145 287.144 360.677C325.676 322.091 325.676 259.587 287.144 221Z" fill="url(#paint0_linear_129_6)"/>
<defs>
<linearGradient id="paint0_linear_129_6" x1="320.5" y1="254.356" x2="374.703" y2="308.559" gradientUnits="userSpaceOnUse">
<stop stop-color="#2563EB"/>
<stop offset="1" stop-color="#97B8FF"/>
</linearGradient>
</defs>
</svg>
